{
	"asset":{
		"generator":"Khronos glTF Blender I/O v4.2.57",
		"version":"2.0"
	},
	"extensionsUsed":[
		"KHR_materials_specular"
	],
	"scene":0,
	"scenes":[
		{
			"name":"Scene",
			"nodes":[
				0
			]
		}
	],
	"nodes":[
		{
			"mesh":0,
			"name":"atas"
		}
	],
	"materials":[
		{
			"doubleSided":true,
			"extensions":{
				"KHR_materials_specular":{
					"specularColorFactor":[
						2.0,
						2.0,
						2.0
					]
				}
			},
			"name":"tengah_diffuse",
			"pbrMetallicRoughness":{
				"baseColorTexture":{
					"index":0
				},
				"metallicFactor":0
			}
		}
	],
	"meshes":[
		{
			"name":"frigate",
			"primitives":[
				{
					"attributes":{
						"POSITION":0,
						"NORMAL":1,
						"TEXCOORD_0":2
					},
					"indices":3,
					"material":0
				}
			]
		}
	],
	"textures":[
		{
			"sampler":0,
			"source":0
		}
	],
	"images":[
		{
			"mimeType":"image/png",
			"name":"tengah_diffuse",
			"uri":"tengah_diffuse.png"
		}
	],
	"accessors":[
		{
			"bufferView":0,
			"componentType":5126,
			"count":2646,
			"max":[
				1.2386674880981445,
				3.8980979919433594,
				2.681169271469116
			],
			"min":[
				-1.186232566833496,
				-0.8807048797607422,
				-2.644230604171753
			],
			"type":"VEC3"
		},
		{
			"bufferView":1,
			"componentType":5126,
			"count":2646,
			"type":"VEC3"
		},
		{
			"bufferView":2,
			"componentType":5126,
			"count":2646,
			"type":"VEC2"
		},
		{
			"bufferView":3,
			"componentType":5123,
			"count":4464,
			"type":"SCALAR"
		}
	],
	"bufferViews":[
		{
			"buffer":0,
			"byteLength":31752,
			"byteOffset":0,
			"target":34962
		},
		{
			"buffer":0,
			"byteLength":31752,
			"byteOffset":31752,
			"target":34962
		},
		{
			"buffer":0,
			"byteLength":21168,
			"byteOffset":63504,
			"target":34962
		},
		{
			"buffer":0,
			"byteLength":8928,
			"byteOffset":84672,
			"target":34963
		}
	],
	"samplers":[
		{
			"magFilter":9729,
			"minFilter":9987
		}
	],
	"buffers":[
		{
			"byteLength":93600,
			"uri":"frigate_radar1.bin"
		}
	]
}
