{
	"asset":{
		"generator":"Khronos glTF Blender I/O v4.2.57",
		"version":"2.0"
	},
	"extensionsUsed":[
		"KHR_materials_transmission",
		"KHR_materials_specular",
		"KHR_materials_ior"
	],
	"scene":0,
	"scenes":[
		{
			"name":"Scene",
			"nodes":[
				0,
				1
			]
		}
	],
	"nodes":[
		{
			"mesh":0,
			"name":"atas"
		},
		{
			"mesh":1,
			"name":"bawah"
		}
	],
	"materials":[
		{
			"doubleSided":true,
			"extensions":{
				"KHR_materials_specular":{
					"specularColorFactor":[
						2.0,
						2.0,
						2.0
					]
				}
			},
			"name":"bawah_diffuse",
			"pbrMetallicRoughness":{
				"baseColorTexture":{
					"index":0
				},
				"metallicFactor":0
			}
		},
		{
			"doubleSided":true,
			"extensions":{
				"KHR_materials_specular":{
					"specularColorFactor":[
						2.0,
						2.0,
						2.0
					]
				}
			},
			"name":"belakang_diffuse",
			"pbrMetallicRoughness":{
				"baseColorTexture":{
					"index":1
				},
				"metallicFactor":0
			}
		},
		{
			"doubleSided":true,
			"extensions":{
				"KHR_materials_specular":{
					"specularColorFactor":[
						2.0,
						2.0,
						2.0
					]
				}
			},
			"name":"tengah_diffuse",
			"pbrMetallicRoughness":{
				"baseColorTexture":{
					"index":2
				},
				"metallicFactor":0
			}
		},
		{
			"doubleSided":true,
			"extensions":{
				"KHR_materials_specular":{
					"specularColorFactor":[
						2.0,
						2.0,
						2.0
					]
				}
			},
			"name":"depan_diffuse",
			"pbrMetallicRoughness":{
				"baseColorTexture":{
					"index":3
				},
				"metallicFactor":0
			}
		},
		{
			"alphaMode":"BLEND",
			"doubleSided":true,
			"extensions":{
				"KHR_materials_transmission":{
					"transmissionFactor":1
				},
				"KHR_materials_ior":{
					"ior":1.4900000095367432
				}
			},
			"name":"kaca",
			"pbrMetallicRoughness":{
				"baseColorFactor":[
					0,
					0.03453640267252922,
					0.0025344768073409796,
					0.10309278964996338
				],
				"metallicFactor":0,
				"roughnessFactor":0
			}
		}
	],
	"meshes":[
		{
			"name":"frigate",
			"primitives":[
				{
					"attributes":{
						"POSITION":0,
						"NORMAL":1,
						"TEXCOORD_0":2
					},
					"indices":3,
					"material":0
				},
				{
					"attributes":{
						"POSITION":4,
						"NORMAL":5,
						"TEXCOORD_0":6
					},
					"indices":7,
					"material":1
				},
				{
					"attributes":{
						"POSITION":8,
						"NORMAL":9,
						"TEXCOORD_0":10
					},
					"indices":11,
					"material":2
				},
				{
					"attributes":{
						"POSITION":12,
						"NORMAL":13,
						"TEXCOORD_0":14
					},
					"indices":15,
					"material":3
				},
				{
					"attributes":{
						"POSITION":16,
						"NORMAL":17,
						"TEXCOORD_0":18
					},
					"indices":19,
					"material":4
				}
			]
		},
		{
			"name":"frigate.001",
			"primitives":[
				{
					"attributes":{
						"POSITION":20,
						"NORMAL":21,
						"TEXCOORD_0":22
					},
					"indices":23,
					"material":0
				},
				{
					"attributes":{
						"POSITION":24,
						"NORMAL":25,
						"TEXCOORD_0":26
					},
					"indices":27,
					"material":1
				},
				{
					"attributes":{
						"POSITION":28,
						"NORMAL":29,
						"TEXCOORD_0":30
					},
					"indices":31,
					"material":2
				},
				{
					"attributes":{
						"POSITION":32,
						"NORMAL":33,
						"TEXCOORD_0":34
					},
					"indices":35,
					"material":3
				}
			]
		}
	],
	"textures":[
		{
			"sampler":0,
			"source":0
		},
		{
			"sampler":0,
			"source":1
		},
		{
			"sampler":0,
			"source":2
		},
		{
			"sampler":0,
			"source":3
		}
	],
	"images":[
		{
			"mimeType":"image/png",
			"name":"bawah_diffuse",
			"uri":"bawah_diffuse.png"
		},
		{
			"mimeType":"image/png",
			"name":"belakang_diffuse",
			"uri":"belakang_diffuse.png"
		},
		{
			"mimeType":"image/png",
			"name":"tengah_diffuse",
			"uri":"tengah_diffuse.png"
		},
		{
			"mimeType":"image/png",
			"name":"depan_diffuse",
			"uri":"depan_diffuse.png"
		}
	],
	"accessors":[
		{
			"bufferView":0,
			"componentType":5126,
			"count":385,
			"max":[
				34.42290115356445,
				13.892721176147461,
				7.781254768371582
			],
			"min":[
				-67.01459503173828,
				2.4083118438720703,
				-7.781246185302734
			],
			"type":"VEC3"
		},
		{
			"bufferView":1,
			"componentType":5126,
			"count":385,
			"type":"VEC3"
		},
		{
			"bufferView":2,
			"componentType":5126,
			"count":385,
			"type":"VEC2"
		},
		{
			"bufferView":3,
			"componentType":5123,
			"count":642,
			"type":"SCALAR"
		},
		{
			"bufferView":4,
			"componentType":5126,
			"count":75031,
			"max":[
				-24.76490020751953,
				17.67112159729004,
				8.870844841003418
			],
			"min":[
				-67.91339874267578,
				4.534902095794678,
				-8.870895385742188
			],
			"type":"VEC3"
		},
		{
			"bufferView":5,
			"componentType":5126,
			"count":75031,
			"type":"VEC3"
		},
		{
			"bufferView":6,
			"componentType":5126,
			"count":75031,
			"type":"VEC2"
		},
		{
			"bufferView":7,
			"componentType":5125,
			"count":131814,
			"type":"SCALAR"
		},
		{
			"bufferView":8,
			"componentType":5126,
			"count":67704,
			"max":[
				25.756500244140625,
				29.107221603393555,
				8.005098342895508
			],
			"min":[
				-24.787601470947266,
				4.194041728973389,
				-8.005102157592773
			],
			"type":"VEC3"
		},
		{
			"bufferView":9,
			"componentType":5126,
			"count":67704,
			"type":"VEC3"
		},
		{
			"bufferView":10,
			"componentType":5126,
			"count":67704,
			"type":"VEC2"
		},
		{
			"bufferView":11,
			"componentType":5125,
			"count":128187,
			"type":"SCALAR"
		},
		{
			"bufferView":12,
			"componentType":5126,
			"count":52405,
			"max":[
				67.5479965209961,
				11.441421508789062,
				8.005107879638672
			],
			"min":[
				-65.393798828125,
				3.8364219665527344,
				-8.005102157592773
			],
			"type":"VEC3"
		},
		{
			"bufferView":13,
			"componentType":5126,
			"count":52405,
			"type":"VEC3"
		},
		{
			"bufferView":14,
			"componentType":5126,
			"count":52405,
			"type":"VEC2"
		},
		{
			"bufferView":15,
			"componentType":5123,
			"count":108174,
			"type":"SCALAR"
		},
		{
			"bufferView":16,
			"componentType":5126,
			"count":1604,
			"max":[
				25.272998809814453,
				23.557222366333008,
				5.698269367218018
			],
			"min":[
				5.682300090789795,
				10.65262222290039,
				-5.69774055480957
			],
			"type":"VEC3"
		},
		{
			"bufferView":17,
			"componentType":5126,
			"count":1604,
			"type":"VEC3"
		},
		{
			"bufferView":18,
			"componentType":5126,
			"count":1604,
			"type":"VEC2"
		},
		{
			"bufferView":19,
			"componentType":5123,
			"count":6132,
			"type":"SCALAR"
		},
		{
			"bufferView":20,
			"componentType":5126,
			"count":6086,
			"max":[
				12.7076997756958,
				-1.329735517501831,
				6.514441967010498
			],
			"min":[
				-57.578800201416016,
				-3.9442477226257324,
				-6.514448165893555
			],
			"type":"VEC3"
		},
		{
			"bufferView":21,
			"componentType":5126,
			"count":6086,
			"type":"VEC3"
		},
		{
			"bufferView":22,
			"componentType":5126,
			"count":6086,
			"type":"VEC2"
		},
		{
			"bufferView":23,
			"componentType":5123,
			"count":6594,
			"type":"SCALAR"
		},
		{
			"bufferView":24,
			"componentType":5126,
			"count":193,
			"max":[
				-24.76490020751953,
				10.16952133178711,
				8.005105018615723
			],
			"min":[
				-67.04190063476562,
				-4.130258083343506,
				-8.005098342895508
			],
			"type":"VEC3"
		},
		{
			"bufferView":25,
			"componentType":5126,
			"count":193,
			"type":"VEC3"
		},
		{
			"bufferView":26,
			"componentType":5126,
			"count":193,
			"type":"VEC2"
		},
		{
			"bufferView":27,
			"componentType":5123,
			"count":492,
			"type":"SCALAR"
		},
		{
			"bufferView":28,
			"componentType":5126,
			"count":87,
			"max":[
				22.85340118408203,
				9.441022872924805,
				8.005102157592773
			],
			"min":[
				-24.76490020751953,
				-4.130258083343506,
				-8.005102157592773
			],
			"type":"VEC3"
		},
		{
			"bufferView":29,
			"componentType":5126,
			"count":87,
			"type":"VEC3"
		},
		{
			"bufferView":30,
			"componentType":5126,
			"count":87,
			"type":"VEC2"
		},
		{
			"bufferView":31,
			"componentType":5123,
			"count":198,
			"type":"SCALAR"
		},
		{
			"bufferView":32,
			"componentType":5126,
			"count":2102,
			"max":[
				67.5479965209961,
				7.535231590270996,
				8.005107879638672
			],
			"min":[
				22.85340118408203,
				-4.896378040313721,
				-8.005102157592773
			],
			"type":"VEC3"
		},
		{
			"bufferView":33,
			"componentType":5126,
			"count":2102,
			"type":"VEC3"
		},
		{
			"bufferView":34,
			"componentType":5126,
			"count":2102,
			"type":"VEC2"
		},
		{
			"bufferView":35,
			"componentType":5123,
			"count":3903,
			"type":"SCALAR"
		}
	],
	"bufferViews":[
		{
			"buffer":0,
			"byteLength":4620,
			"byteOffset":0,
			"target":34962
		},
		{
			"buffer":0,
			"byteLength":4620,
			"byteOffset":4620,
			"target":34962
		},
		{
			"buffer":0,
			"byteLength":3080,
			"byteOffset":9240,
			"target":34962
		},
		{
			"buffer":0,
			"byteLength":1284,
			"byteOffset":12320,
			"target":34963
		},
		{
			"buffer":0,
			"byteLength":900372,
			"byteOffset":13604,
			"target":34962
		},
		{
			"buffer":0,
			"byteLength":900372,
			"byteOffset":913976,
			"target":34962
		},
		{
			"buffer":0,
			"byteLength":600248,
			"byteOffset":1814348,
			"target":34962
		},
		{
			"buffer":0,
			"byteLength":527256,
			"byteOffset":2414596,
			"target":34963
		},
		{
			"buffer":0,
			"byteLength":812448,
			"byteOffset":2941852,
			"target":34962
		},
		{
			"buffer":0,
			"byteLength":812448,
			"byteOffset":3754300,
			"target":34962
		},
		{
			"buffer":0,
			"byteLength":541632,
			"byteOffset":4566748,
			"target":34962
		},
		{
			"buffer":0,
			"byteLength":512748,
			"byteOffset":5108380,
			"target":34963
		},
		{
			"buffer":0,
			"byteLength":628860,
			"byteOffset":5621128,
			"target":34962
		},
		{
			"buffer":0,
			"byteLength":628860,
			"byteOffset":6249988,
			"target":34962
		},
		{
			"buffer":0,
			"byteLength":419240,
			"byteOffset":6878848,
			"target":34962
		},
		{
			"buffer":0,
			"byteLength":216348,
			"byteOffset":7298088,
			"target":34963
		},
		{
			"buffer":0,
			"byteLength":19248,
			"byteOffset":7514436,
			"target":34962
		},
		{
			"buffer":0,
			"byteLength":19248,
			"byteOffset":7533684,
			"target":34962
		},
		{
			"buffer":0,
			"byteLength":12832,
			"byteOffset":7552932,
			"target":34962
		},
		{
			"buffer":0,
			"byteLength":12264,
			"byteOffset":7565764,
			"target":34963
		},
		{
			"buffer":0,
			"byteLength":73032,
			"byteOffset":7578028,
			"target":34962
		},
		{
			"buffer":0,
			"byteLength":73032,
			"byteOffset":7651060,
			"target":34962
		},
		{
			"buffer":0,
			"byteLength":48688,
			"byteOffset":7724092,
			"target":34962
		},
		{
			"buffer":0,
			"byteLength":13188,
			"byteOffset":7772780,
			"target":34963
		},
		{
			"buffer":0,
			"byteLength":2316,
			"byteOffset":7785968,
			"target":34962
		},
		{
			"buffer":0,
			"byteLength":2316,
			"byteOffset":7788284,
			"target":34962
		},
		{
			"buffer":0,
			"byteLength":1544,
			"byteOffset":7790600,
			"target":34962
		},
		{
			"buffer":0,
			"byteLength":984,
			"byteOffset":7792144,
			"target":34963
		},
		{
			"buffer":0,
			"byteLength":1044,
			"byteOffset":7793128,
			"target":34962
		},
		{
			"buffer":0,
			"byteLength":1044,
			"byteOffset":7794172,
			"target":34962
		},
		{
			"buffer":0,
			"byteLength":696,
			"byteOffset":7795216,
			"target":34962
		},
		{
			"buffer":0,
			"byteLength":396,
			"byteOffset":7795912,
			"target":34963
		},
		{
			"buffer":0,
			"byteLength":25224,
			"byteOffset":7796308,
			"target":34962
		},
		{
			"buffer":0,
			"byteLength":25224,
			"byteOffset":7821532,
			"target":34962
		},
		{
			"buffer":0,
			"byteLength":16816,
			"byteOffset":7846756,
			"target":34962
		},
		{
			"buffer":0,
			"byteLength":7806,
			"byteOffset":7863572,
			"target":34963
		}
	],
	"samplers":[
		{
			"magFilter":9729,
			"minFilter":9987
		}
	],
	"buffers":[
		{
			"byteLength":7871380,
			"uri":"frigate.bin"
		}
	]
}
