{
	"asset":{
		"generator":"Khronos glTF Blender I/O v4.2.57",
		"version":"2.0"
	},
	"extensionsUsed":[
		"KHR_materials_specular"
	],
	"scene":0,
	"scenes":[
		{
			"name":"Scene",
			"nodes":[
				0
			]
		}
	],
	"nodes":[
		{
			"mesh":0,
			"name":"bawah"
		}
	],
	"materials":[
		{
			"doubleSided":true,
			"extensions":{
				"KHR_materials_specular":{
					"specularColorFactor":[
						2.0,
						2.0,
						2.0
					]
				}
			},
			"name":"bawah_diffuse",
			"pbrMetallicRoughness":{
				"baseColorTexture":{
					"index":0
				},
				"metallicFactor":0
			}
		}
	],
	"meshes":[
		{
			"name":"frigate.001",
			"primitives":[
				{
					"attributes":{
						"POSITION":0,
						"NORMAL":1,
						"TEXCOORD_0":2
					},
					"indices":3,
					"material":0
				}
			]
		}
	],
	"textures":[
		{
			"sampler":0,
			"source":0
		}
	],
	"images":[
		{
			"mimeType":"image/png",
			"name":"bawah_diffuse",
			"uri":"bawah_diffuse.png"
		}
	],
	"accessors":[
		{
			"bufferView":0,
			"componentType":5126,
			"count":6528,
			"max":[
				-0.000619351863861084,
				1.6702221632003784,
				1.670711874961853
			],
			"min":[
				-1.6836180686950684,
				-1.6703280210494995,
				-1.6714378595352173
			],
			"type":"VEC3"
		},
		{
			"bufferView":1,
			"componentType":5126,
			"count":6528,
			"type":"VEC3"
		},
		{
			"bufferView":2,
			"componentType":5126,
			"count":6528,
			"type":"VEC2"
		},
		{
			"bufferView":3,
			"componentType":5123,
			"count":6528,
			"type":"SCALAR"
		}
	],
	"bufferViews":[
		{
			"buffer":0,
			"byteLength":78336,
			"byteOffset":0,
			"target":34962
		},
		{
			"buffer":0,
			"byteLength":78336,
			"byteOffset":78336,
			"target":34962
		},
		{
			"buffer":0,
			"byteLength":52224,
			"byteOffset":156672,
			"target":34962
		},
		{
			"buffer":0,
			"byteLength":13056,
			"byteOffset":208896,
			"target":34963
		}
	],
	"samplers":[
		{
			"magFilter":9729,
			"minFilter":9987
		}
	],
	"buffers":[
		{
			"byteLength":221952,
			"uri":"frigate_propeller.bin"
		}
	]
}
